<svg height="512" viewBox="0 0 58 48" width="512" xmlns="http://www.w3.org/2000/svg"><g id="Page-1" fill="none" fill-rule="evenodd"><g id="013---CO2" fill="rgb(0,0,0)" fill-rule="nonzero" transform="translate(-1)"><path id="Shape" d="m20.539 23c.6820321-.0008051 1.3536632.1671886 1.955.489l1.353-1.518c-.9875621-.6323832-2.1353174-.9692847-3.308-.971-3.7348486.1357409-6.6576205 3.2645684-6.539 7-.1186205 3.7354316 2.8041514 6.8642591 6.539 7 1.1795064-.0036897 2.333675-.3425187 3.328-.977l-1.352-1.523c-.6065332.3291775-1.2858991.5010819-1.976.5-2.6298209-.1363937-4.6568372-2.3692823-4.539-5-.1178372-2.6307177 1.9091791-4.8636063 4.539-5z"/><path id="Shape" d="m34 21c-3.309 0-6 3.14-6 7s2.691 7 6 7 6-3.14 6-7-2.691-7-6-7zm0 12c-2.206 0-4-2.243-4-5s1.794-5 4-5 4 2.243 4 5-1.794 5-4 5z"/><ellipse id="Oval" cx="34" cy="28" rx="2" ry="3"/><path id="Shape" d="m47 17.04v-.04c0-9.38884075-7.6111593-17-17-17s-17 7.61115925-17 17c0 .68.13 2.01.13 2.01h-.01c-5.2114918.1568629-9.7782489 3.5319752-11.45769533 8.4679364-1.67944642 4.9359611-.11879228 10.3959073 3.91557933 13.6986484 4.0343716 3.302741 9.6949877 3.7544926 14.202116 1.1334152 2.2477308 3.6290369 6.2516879 5.7935516 10.519094 5.6865579 4.2674061-.1069938 8.1578619-2.4694398 10.220906-6.2065579 4.718634 2.1935193 10.2906762 1.3619557 14.1632501-2.1137032s5.2994961-8.925709 3.6270106-13.8531653c-1.6724856-4.9274563-6.1221175-8.3828765-11.3102607-8.7831315zm-26.461 13.96c.3545208.0001463.7035661-.0874586 1.016-.255.8245743-.4479487 1.8493781-.2657336 2.469.439l1.333 1.532c.3854823.4440513.5578744 1.0342752.472 1.616-.0819697.5685563-.4081382 1.0729669-.893 1.381-1.3140561.8370858-2.8389745 1.2834287-4.397 1.287-4.8392647-.136264-8.6571417-4.1602589-8.539-9-.1181417-4.8397411 3.6997353-8.863736 8.539-9 1.5590463.0030026 3.0850827.4493683 4.4 1.287.4848618.3080331.8110303.8124437.893 1.381.0858744.5817248-.0865177 1.1719487-.472 1.616l-1.332 1.532c-.6195549.7047307-1.6441381.8873214-2.469.44-.3134751-.1686884-.6640198-.2566682-1.02-.256-1.5238803.1382613-2.654555 1.4742299-2.539 3-.115555 1.5257701 1.0151197 2.8617387 2.539 3zm13.461 6c-4.411 0-8-4.038-8-9s3.589-9 8-9 8 4.038 8 9-3.589 9-8 9zm14 0c.5522847 0 1 .4477153 1 1s-.4477153 1-1 1h-4c-.3977652.0003135-.757896-.2351435-.9171457-.5996387s-.0873348-.7887151.1831457-1.0803613l2.73-2.946c.094-.1.194-.2.3-.306.298991-.2460232.5331507-.561555.682-.919.0763872-.2448571.0261735-.5116642-.134-.712-.2055574-.2632459-.516299-.4230036-.85-.437-.53627-.0140206-.9831268.4078122-1 .944 0 .5522847-.4477153 1-1 1s-1-.4477153-1-1c.0175865-1.6404867 1.3594731-2.9573248 3-2.944.9513824.0163671 1.8435504.4650275 2.424 1.219.5405074.6927054.7187624 1.6014342.48 2.447-.2257377.7000322-.6378072 1.3253959-1.192 1.809-.085.087-.17.172-.25.258l-1.174 1.267z"/></g></g></svg>